<svg xmlns="http://www.w3.org/2000/svg" viewBox="0 0 720 800">
<defs><radialGradient id="sky"><stop stop-color="#29494d"/><stop offset="1" stop-color="#10212a"/></radialGradient><radialGradient id="orb" cx="30%" cy="23%"><stop stop-color="#fbefbc"/><stop offset=".36" stop-color="#d8b776"/><stop offset="1" stop-color="#745537"/></radialGradient><radialGradient id="teal" cx="30%" cy="20%"><stop stop-color="#d4eece"/><stop offset=".4" stop-color="#7eb1aa"/><stop offset="1" stop-color="#25434e"/></radialGradient><linearGradient id="steel" x2=".7" y2="1"><stop stop-color="#fff8e8"/><stop offset=".3" stop-color="#a9bec0"/><stop offset=".6" stop-color="#f5ead5"/><stop offset="1" stop-color="#536c79"/></linearGradient></defs>
<path fill="url(#sky)" d="M0 0h720v800H0z"/>
<g fill="none" stroke="#cfb982"><rect x="34" y="34" width="652" height="732" rx="265" opacity=".55"/><rect x="46" y="46" width="628" height="708" rx="250" opacity=".2"/><circle cx="360" cy="366" r="215" opacity=".16"/><circle cx="360" cy="366" r="285" opacity=".12"/><path d="M75 366h570M360 80v572" opacity=".16"/></g>
<g fill="#e8cd98"><path d="m360 79 9 25 26 9-26 9-9 25-9-25-26-9 26-9Z"/><circle cx="155" cy="234" r="3"/><circle cx="558" cy="297" r="3"/><circle cx="176" cy="497" r="3"/><circle cx="527" cy="502" r="2"/><circle cx="278" cy="171" r="2"/><circle cx="470" cy="184" r="2"/><circle cx="105" cy="395" r="2"/><circle cx="585" cy="394" r="2"/><path d="m535 202 3 10 11 3-11 3-3 10-3-10-11-3 11-3Z"/><path d="m211 387 3 10 11 3-11 3-3 10-3-10-11-3 11-3Z"/></g>
<g transform="translate(360 324) rotate(-28)"><circle r="114" fill="url(#orb)"/><ellipse rx="175" ry="44" fill="none" stroke="#e8d0a0" stroke-width="8"/><ellipse rx="187" ry="49" fill="none" stroke="#d6bd8c" opacity=".4"/><path d="M-103-49Q0-90 103-49M-114 0Q0-30 114 0M-102 48Q0 25 102 48" fill="none" stroke="#6e583e" opacity=".28" stroke-width="3"/></g>
<circle cx="515" cy="156" r="28" fill="url(#teal)"/><circle cx="206" cy="498" r="42" fill="url(#teal)"/><circle cx="459" cy="522" r="18" fill="url(#steel)"/>
<g fill="none" stroke="#dfc18a" stroke-linecap="round"><path d="M176 560v61l116 81M544 560v61l-116 81" stroke-width="7"/><path d="m220 668 89 44m191-44-89 44" stroke-width="25"/><path d="m220 668 89 44m191-44-89 44" stroke="#9b8055" stroke-width="3"/></g>
<g fill="#d5c9a4" opacity=".65"><path d="m355 589 5-12 5 12 12 5-12 5-5 12-5-12-12-5Z"/><circle cx="360" cy="743" r="3"/></g>
</svg>
